<svg width="70" height="68" viewBox="0 0 70 68" fill="none" xmlns="http://www.w3.org/2000/svg">
<g id="btn">
<path d="M0.591877 1.3077H63.5641C66.4356 1.3077 68.7635 3.63557 68.7635 6.50715V61.9685C68.7635 64.84 66.4356 67.1679 63.5641 67.1679H0.591877V1.3077Z" fill="#2091F9"/>
<path id="Vector" fill-rule="evenodd" clip-rule="evenodd" d="M39.6754 37.5876L45.8916 43.8038C46.1101 44.0225 46.2328 44.319 46.2327 44.6281C46.2326 44.9372 46.1097 45.2336 45.891 45.4521C45.6724 45.6705 45.3759 45.7932 45.0668 45.7931C44.7577 45.793 44.4613 45.6701 44.2428 45.4515L38.0266 39.2352C36.1683 40.6745 33.8315 41.3519 31.4916 41.1294C29.1517 40.907 26.9844 39.8014 25.4306 38.0378C23.8768 36.2741 23.0533 33.9847 23.1275 31.6354C23.2018 29.2861 24.1682 27.0534 25.8303 25.3913C27.4923 23.7293 29.7251 22.7628 32.0744 22.6886C34.4237 22.6143 36.7131 23.4379 38.4767 24.9916C40.2404 26.5454 41.3459 28.7127 41.5684 31.0526C41.7908 33.3925 41.1135 35.7293 39.6742 37.5876H39.6754ZM32.3672 38.8597C34.2059 38.8597 35.9692 38.1293 37.2693 36.8292C38.5695 35.5291 39.2998 33.7658 39.2998 31.9271C39.2998 30.0885 38.5695 28.3252 37.2693 27.025C35.9692 25.7249 34.2059 24.9945 32.3672 24.9945C30.5286 24.9945 28.7653 25.7249 27.4652 27.025C26.165 28.3252 25.4347 30.0885 25.4347 31.9271C25.4347 33.7658 26.165 35.5291 27.4652 36.8292C28.7653 38.1293 30.5286 38.8597 32.3672 38.8597Z" fill="white"/>
<path d="M0.591877 1.3077H63.5641C66.4356 1.3077 68.7635 3.63557 68.7635 6.50715V61.9685C68.7635 64.84 66.4356 67.1679 63.5641 67.1679H0.591877V1.3077Z" stroke="#E6E6E6" stroke-width="1.15543"/>
</g>
</svg>
