<svg width="120" height="112" viewBox="0 0 120 112" fill="none" xmlns="http://www.w3.org/2000/svg">
<g id="Frame 1201">
<g clip-path="url(#clip0_4_1687)">
<path d="M0.582031 0.651367H65.0911C95.1856 0.651367 119.582 25.0478 119.582 55.1423C119.582 86.3514 94.2821 111.651 63.0729 111.651H59.0002C26.7367 111.651 0.582031 85.4967 0.582031 53.2332V0.651367Z" fill="#819FEE"/>
<g id="Group 23">
<path id="Vector" d="M99.0264 96.2851C95.489 86.7568 73.8299 82.2248 70.0364 79.4676C65.171 75.9242 66.7193 64.1984 66.7193 64.1984L58.7513 64.4068L50.7832 64.1984C50.7832 64.1984 52.3315 75.9242 47.4661 79.4676C43.6726 82.2248 22.0135 86.7687 18.4701 96.2851C16.3184 102.104 14.6901 108.102 13.6047 114.21H103.898C102.812 108.102 101.182 102.103 99.0264 96.2851Z" fill="#FDDEC0"/>
<path id="Vector_2" d="M49.3064 77.282C53.0344 76.9009 56.7862 76.1446 60.0258 74.3044C62.3487 72.9973 64.5215 71.4397 66.5051 69.6593C66.4338 67.8284 66.5035 65.9948 66.7135 64.1746L58.7454 64.383L50.7773 64.1746C50.7773 64.1746 51.885 72.5417 49.3064 77.282Z" fill="#E2C6AF"/>
<path id="Vector_3" d="M99.6576 96.1541C96.2095 86.8818 75.6938 82.2963 70.8879 79.4795C70.5663 79.6701 70.2269 79.8428 69.8874 80.0155L59.3288 91.9259L44.7326 80.6527C37.5089 83.541 21.5072 88.061 18.5296 96.1362C16.3602 101.997 14.7199 108.039 13.6285 114.192H104.559C103.466 108.046 101.826 102.009 99.6576 96.1541Z" fill="#FC6A5A"/>
<g id="Group">
<path id="Vector_4" d="M14.2717 107.314H104.196" stroke="#F99787" stroke-width="3" stroke-miterlimit="10"/>
<path id="Vector_5" d="M14.2716 110.095H104.195" stroke="#F99787" stroke-miterlimit="10"/>
</g>
<path id="Vector_6" d="M55.9584 85.3811L59.335 91.9319L61.7171 84.5891L63.5037 88.1622L59.1326 92.7299L54.1719 88.3587L55.9584 85.3811Z" fill="#BC7068"/>
<path id="Vector_7" d="M43.8512 80.8134L52.784 93.7184L55.9582 85.3811L46.6263 76.0493L43.8512 80.8134Z" fill="#F99787"/>
<path id="Vector_8" d="M73.2284 79.8249L64.8911 92.9263L61.7169 84.589L71.0428 75.2572L73.2284 79.8249Z" fill="#F99787"/>
<path id="Vector_9" d="M45.37 45.9099C44.0837 41.9199 41.0406 42.843 40.7547 42.9323C40.4689 43.0216 37.3066 43.4385 37.8486 47.5952C38.3905 51.752 40.8262 54.0447 43.1011 53.3778C45.4415 53.0145 46.6683 49.9237 45.37 45.9099Z" fill="#E2C6AF"/>
<path id="Vector_10" d="M70.3402 45.5109C71.6265 41.5209 74.6756 42.444 74.9614 42.5333C75.2473 42.6226 78.4095 43.0336 77.8616 47.1903C77.3137 51.347 74.884 53.6398 72.6151 52.9788C70.2687 52.6155 69.0419 49.5307 70.3402 45.5109Z" fill="#E2C6AF"/>
<path id="Vector_11" d="M74.4017 39.6331C72.8116 22.1307 59.5136 23.1074 58.2511 23.2444C56.9946 23.1074 43.6906 22.1307 42.0946 39.6331C40.4926 57.2367 48.3357 68.7363 58.2511 68.0991C68.1487 68.7363 75.9917 57.2367 74.4017 39.6331Z" fill="#FDDEC0"/>
<path id="Vector_12" d="M60.109 45.6062C60.3483 46.1507 60.5473 46.712 60.7045 47.2856C60.7938 47.5655 60.8593 47.8811 60.9368 48.1372C61.0142 48.3932 61.0618 48.7327 61.1273 48.9947C61.2464 49.5902 61.3417 50.1441 61.4132 50.7217C61.4846 51.2994 61.5323 51.9128 61.574 52.4666V52.7703L61.4013 52.9013C60.6702 53.4921 59.8822 54.0088 59.049 54.4437C59.5281 53.6355 60.0846 52.8756 60.7105 52.1748L60.5616 52.6095C60.4365 52.014 60.3115 51.4661 60.2281 50.8885C60.1447 50.3108 60.0613 49.7332 60.0197 49.1495C60.0197 48.8577 59.9661 48.554 59.9601 48.2741C59.9541 47.9942 59.9601 47.6786 59.9601 47.3928C59.9626 46.7942 60.0124 46.1969 60.109 45.6062Z" fill="#E2C6AF"/>
<path id="Vector_13" d="M50.527 57.0164L66.3143 56.8496C66.3143 56.8496 60.0017 63.0669 50.527 57.0164Z" fill="white"/>
<path id="Vector_14" d="M54.5764 60.1905C54.5764 60.1905 54.7432 60.2263 55.035 60.3096C55.4252 60.4389 55.823 60.5443 56.2261 60.6253L57.0181 60.7801C57.3113 60.8335 57.6077 60.8673 57.9054 60.8813C58.2211 60.9242 58.5399 60.9402 58.8583 60.929C59.1858 60.929 59.5133 60.929 59.8409 60.8932L60.8116 60.7384C61.1236 60.6831 61.4304 60.6014 61.7287 60.4942C62.0189 60.4232 62.302 60.3255 62.5743 60.2024C62.8304 60.0774 63.0805 59.9702 63.3128 59.8689C63.5202 59.7768 63.7194 59.6672 63.9083 59.5414L64.3668 59.2615L64.7777 59.0293L64.4383 59.3568L64.0333 59.726C63.8674 59.8949 63.6814 60.0429 63.4795 60.1667C63.2592 60.3037 63.021 60.4526 62.7589 60.6014C62.4883 60.7659 62.1982 60.8959 61.8954 60.9885L61.4249 61.1672L61.1808 61.2565L60.9307 61.2982L59.8945 61.4888C59.5431 61.4888 59.1917 61.4888 58.8463 61.4888C58.5082 61.492 58.1707 61.458 57.8399 61.3875C57.5255 61.353 57.2146 61.2912 56.9109 61.2029C56.625 61.1136 56.3511 61.0243 56.1069 60.9349C55.8826 60.8665 55.6668 60.7726 55.4638 60.655L54.9814 60.4049C54.7492 60.2799 54.5764 60.1905 54.5764 60.1905Z" fill="#E2C6AF"/>
<path id="Vector_15" d="M51.0511 48.2622C51.6529 48.2622 52.1409 47.1931 52.1409 45.8742C52.1409 44.5553 51.6529 43.4861 51.0511 43.4861C50.4492 43.4861 49.9613 44.5553 49.9613 45.8742C49.9613 47.1931 50.4492 48.2622 51.0511 48.2622Z" fill="#352C38"/>
<path id="Vector_16" d="M64.9686 45.8682C64.9686 47.1903 65.4569 48.2503 66.0643 48.2503C66.6718 48.2503 67.1541 47.1843 67.1541 45.8682C67.1541 44.5521 66.6658 43.4861 66.0643 43.4861C65.4629 43.4861 64.9686 44.5521 64.9686 45.8682Z" fill="#352C38"/>
<path id="Vector_17" d="M47.2695 41.9676C47.4498 41.5095 47.7145 41.0894 48.0497 40.7289C48.2121 40.5518 48.3851 40.3848 48.5678 40.2286C48.7751 40.0516 48.9984 39.8941 49.2347 39.7582C49.7628 39.4279 50.3599 39.2241 50.9796 39.1627C51.1404 39.1627 51.3012 39.1627 51.462 39.1627C51.6228 39.1627 51.7776 39.1984 51.9384 39.2222C52.2429 39.2687 52.5394 39.3568 52.8198 39.4842C53.0761 39.6018 53.3196 39.7455 53.5463 39.913C53.7457 40.056 53.9276 40.2219 54.0883 40.4073C54.2348 40.5473 54.3629 40.7054 54.4694 40.8778C54.5706 41.0266 54.6421 41.1696 54.7076 41.2768C54.8267 41.5031 54.8863 41.6341 54.8863 41.6341C54.8863 41.6341 54.7433 41.5745 54.523 41.4554C54.4158 41.3959 54.2848 41.3244 54.1419 41.2351C53.9813 41.1454 53.8163 41.0639 53.6476 40.9909C53.4562 40.893 53.257 40.8113 53.052 40.7467C52.8461 40.6659 52.6353 40.5983 52.4208 40.5443C52.2076 40.4912 51.9906 40.4553 51.7717 40.4371H51.4322L51.0868 40.4668C50.8523 40.4826 50.6194 40.5165 50.3901 40.5681C50.1638 40.6455 49.9315 40.6812 49.7112 40.7765C49.4945 40.853 49.2818 40.9405 49.074 41.0385C48.8655 41.116 48.6809 41.2232 48.4784 41.3065L47.9842 41.5686L47.5971 41.777L47.2695 41.9676Z" fill="#352C38"/>
<path id="Vector_18" d="M62.3961 41.9676C62.5735 41.5081 62.8384 41.0874 63.1762 40.7289C63.3351 40.5504 63.5062 40.3833 63.6883 40.2286C63.8978 40.0515 64.123 39.8941 64.3613 39.7582C64.6185 39.6071 64.8897 39.4815 65.1712 39.383C65.4738 39.2887 65.785 39.2249 66.1002 39.1924C66.261 39.1924 66.4218 39.1924 66.5826 39.1924C66.7434 39.1924 66.8982 39.2282 67.059 39.252C67.3636 39.2976 67.6603 39.3858 67.9404 39.514C68.1974 39.6302 68.441 39.774 68.6669 39.9428C68.8663 40.0858 69.0482 40.2517 69.2088 40.4371C69.3554 40.577 69.4835 40.7351 69.59 40.9075C69.6912 41.0564 69.7627 41.1993 69.8282 41.3065C69.9473 41.5328 70.0068 41.6638 70.0068 41.6638C70.0068 41.6638 69.8699 41.6043 69.6495 41.4852C69.5364 41.4256 69.4053 41.3542 69.2624 41.2648C69.1195 41.1755 68.9468 41.11 68.7741 41.0207C68.5817 40.9251 68.3827 40.8435 68.1786 40.7765C67.9721 40.6974 67.7613 40.6298 67.5473 40.574C67.3261 40.5225 67.101 40.4886 66.8744 40.4728H66.5349L66.1895 40.5026C65.9551 40.5188 65.7222 40.5526 65.4928 40.6038C65.2665 40.6812 65.0342 40.717 64.8198 40.8123C64.6008 40.8877 64.3861 40.9752 64.1767 41.0743C63.9682 41.1517 63.7836 41.2589 63.5811 41.3423L63.0869 41.6043L62.6998 41.8127L62.3961 41.9676Z" fill="#352C38"/>
<path id="Vector_19" d="M47.6034 32.8203C47.6034 32.8203 52.4092 39.1269 59.9485 40.1214L58.162 37.5369C60.6323 39.1371 63.4018 40.219 66.3028 40.717C66.8147 38.1748 66.301 35.5332 64.8735 33.3682C64.8735 33.3682 68.2442 40.717 72.2163 43.4921C72.2163 43.4921 73.8063 38.3349 71.8173 35.3573C71.8173 35.3573 73.0857 36.7567 76.8554 41.3125C76.8554 41.3125 81.0777 28.5028 70.7573 21.5531C60.4369 14.6033 49.4197 20.8742 45.8466 24.6438C45.8466 24.6438 39.4864 22.5 38.0274 31.004C37.3016 35.2106 37.8083 39.5373 39.4864 43.4623C39.4864 43.4623 41.7196 41.9854 41.7196 46.5531L42.2437 51.222H43.6312L43.8278 41.8961C43.8278 41.8961 47.383 40.5621 47.6034 32.8203Z" fill="#352C38"/>
<path id="Vector_20" d="M72.6745 50.9778L74.1752 50.9302C75.5389 46.029 74.6159 37.1438 74.6159 37.1438C74.6159 37.1438 69.9768 27.9251 71.8348 35.3573C73.3713 41.4971 72.8412 49.0662 72.6745 50.9778Z" fill="#352C38"/>
</g>
</g>
</g>
<defs>
<clipPath id="clip0_4_1687">
<path d="M0.582031 0.651367H65.0911C95.1856 0.651367 119.582 25.0478 119.582 55.1423C119.582 86.3514 94.2821 111.651 63.0729 111.651H59.0002C26.7367 111.651 0.582031 85.4967 0.582031 53.2332V0.651367Z" fill="white"/>
</clipPath>
</defs>
</svg>
