<svg width="16" height="17" viewBox="0 0 16 17" fill="none" xmlns="http://www.w3.org/2000/svg">
<g id="Star">
<path id="Vector" d="M8.13378 12.7256L11.2297 14.7227C11.6254 14.978 12.1168 14.5983 11.9993 14.128L11.1049 10.5453C11.0797 10.4455 11.0827 10.3405 11.1135 10.2424C11.1443 10.1443 11.2017 10.057 11.279 9.99058L14.0553 7.63787C14.4201 7.32873 14.2318 6.71232 13.7631 6.68135L10.1375 6.44177C10.0399 6.43467 9.94622 6.39946 9.86745 6.34026C9.78869 6.28105 9.72806 6.20029 9.69263 6.10736L8.34044 2.6403C8.30369 2.54166 8.23833 2.45674 8.15306 2.39682C8.06778 2.3369 7.96662 2.30481 7.86301 2.30481C7.7594 2.30481 7.65824 2.3369 7.57296 2.39682C7.48769 2.45674 7.42233 2.54166 7.38558 2.6403L6.03339 6.10736C5.99796 6.20029 5.93734 6.28105 5.85857 6.34026C5.7798 6.39946 5.68614 6.43467 5.58848 6.44177L1.96291 6.68135C1.49424 6.71232 1.30596 7.32873 1.67074 7.63787L4.44697 9.99058C4.52434 10.057 4.58173 10.1443 4.61255 10.2424C4.64336 10.3405 4.64634 10.4455 4.62115 10.5453L3.79162 13.8678C3.65071 14.4322 4.24031 14.8879 4.7152 14.5815L7.59224 12.7256C7.67316 12.6732 7.76709 12.6453 7.86301 12.6453C7.95893 12.6453 8.05286 12.6732 8.13378 12.7256Z" fill="#EBBE51"/>
</g>
</svg>
